<?xml version="1.0" encoding="UTF-8"?>
<svg width="315px" height="315px" viewBox="0 0 315 315" version="1.1" xmlns="http://www.w3.org/2000/svg" xmlns:xlink="http://www.w3.org/1999/xlink">
    <!-- Generator: Sketch 46 (44423) - http://www.bohemiancoding.com/sketch -->
    <title>Artboard</title>
    <desc>Created with Sketch.</desc>
    <defs></defs>
    <g id="Page-1" stroke="none" stroke-width="1" fill="none" fill-rule="evenodd">
        <g id="Artboard">
            <g id="Page-1" transform="translate(84.000000, 0.000000)">
                <polygon id="Fill-1" fill="#CC9D69" points="62.94 188.82 83.92 188.82 83.92 167.84 62.94 167.84"></polygon>
                <polygon id="Fill-2" fill="#695142" points="41.96 83.92 62.94 83.92 62.94 62.94 41.96 62.94"></polygon>
                <polygon id="Fill-3" fill="#695142" points="104.9 188.82 125.88 188.82 125.88 167.84 104.9 167.84"></polygon>
                <polygon id="Fill-4" fill="#CC9D69" points="20.98 209.8 41.96 209.8 41.96 188.82 20.98 188.82"></polygon>
                <polygon id="Fill-5" fill="#9B744E" points="20.98 62.94 41.96 62.94 41.96 41.96 20.98 41.96"></polygon>
                <polygon id="Fill-6" fill="#9B744E" points="41.96 293.72 62.94 293.72 62.94 272.74 41.96 272.74"></polygon>
                <polygon id="Fill-7" fill="#CC9D69" points="41.96 167.84 62.94 167.84 62.94 146.86 41.96 146.86"></polygon>
                <polygon id="Fill-8" fill="#695142" points="41.96 272.74 62.94 272.74 62.94 251.76 41.96 251.76"></polygon>
                <polygon id="Fill-9" fill="#CC9D69" points="41.96 188.82 62.94 188.82 62.94 167.84 41.96 167.84"></polygon>
                <polygon id="Fill-10" fill="#695142" points="20.98 41.96 41.96 41.96 41.96 20.98 20.98 20.98"></polygon>
                <polygon id="Fill-11" fill="#FFFFFF" points="62.94 83.92 83.92 83.92 83.92 62.94 62.94 62.94"></polygon>
                <polygon id="Fill-12" fill="#FFD9B3" points="104.9 167.84 125.88 167.84 125.88 146.86 104.9 146.86"></polygon>
                <polygon id="Fill-13" fill="#695142" points="83.92 251.76 104.9 251.76 104.9 230.78 83.92 230.78"></polygon>
                <polygon id="Fill-14" fill="#CC9D69" points="104.9 83.92 125.88 83.92 125.88 62.94 104.9 62.94"></polygon>
                <polygon id="Fill-15" fill="#212121" points="125.88 83.92 146.86 83.92 146.86 62.94 125.88 62.94"></polygon>
                <polygon id="Fill-16" fill="#9B744E" points="62.94 293.72 83.92 293.72 83.92 272.74 62.94 272.74"></polygon>
                <polygon id="Fill-17" fill="#CC9D69" points="62.94 167.84 83.92 167.84 83.92 146.86 62.94 146.86"></polygon>
                <polygon id="Fill-18" fill="#695142" points="62.94 272.74 83.92 272.74 83.92 251.76 62.94 251.76"></polygon>
                <polygon id="Fill-19" fill="#CC9D69" points="62.94 314.7 83.92 314.7 83.92 293.72 62.94 293.72"></polygon>
                <polygon id="Fill-20" fill="#CC9D69" points="83.92 209.8 104.9 209.8 104.9 188.82 83.92 188.82"></polygon>
                <polygon id="Fill-21" fill="#695142" points="83.92 62.94 104.9 62.94 104.9 41.96 83.92 41.96"></polygon>
                <polygon id="Fill-22" fill="#9B744E" points="62.94 104.9 83.92 104.9 83.92 83.92 62.94 83.92"></polygon>
                <polygon id="Fill-23" fill="#9B744E" points="41.96 125.88 62.94 125.88 62.94 104.9 41.96 104.9"></polygon>
                <polygon id="Fill-24" fill="#CC9D69" points="0 62.94 20.98 62.94 20.98 41.96 0 41.96"></polygon>
                <polygon id="Fill-25" fill="#9B744E" points="41.96 146.86 62.94 146.86 62.94 125.88 41.96 125.88"></polygon>
                <polygon id="Fill-26" fill="#CC9D69" points="20.98 20.98 41.96 20.98 41.96 -5.68434189e-14 20.98 -5.68434189e-14"></polygon>
                <polygon id="Fill-27" fill="#CC9D69" points="104.9 104.9 125.88 104.9 125.88 83.92 104.9 83.92"></polygon>
                <polygon id="Fill-28" fill="#695142" points="125.88 104.9 146.86 104.9 146.86 83.92 125.88 83.92"></polygon>
                <polygon id="Fill-29" fill="#CC9D69" points="41.96 314.7 62.94 314.7 62.94 293.72 41.96 293.72"></polygon>
                <polygon id="Fill-30" fill="#695142" points="83.92 230.78 104.9 230.78 104.9 209.8 83.92 209.8"></polygon>
                <polygon id="Fill-31" fill="#9B744E" points="41.96 104.9 62.94 104.9 62.94 83.92 41.96 83.92"></polygon>
                <polygon id="Fill-32" fill="#CC9D69" points="62.94 125.88 83.92 125.88 83.92 104.9 62.94 104.9"></polygon>
                <polygon id="Fill-33" fill="#9B744E" points="62.94 146.86 83.92 146.86 83.92 125.88 62.94 125.88"></polygon>
                <polygon id="Fill-34" fill="#CC9D69" points="0 41.96 20.98 41.96 20.98 20.979 0 20.979"></polygon>
                <polygon id="Fill-35" fill="#CC9D69" points="104.9 125.88 125.88 125.88 125.88 104.9 104.9 104.9"></polygon>
                <polygon id="Fill-36" fill="#695142" points="125.88 125.88 146.86 125.88 146.86 104.9 125.88 104.9"></polygon>
                <polygon id="Fill-37" fill="#CC9D69" points="41.96 251.76 62.94 251.76 62.94 230.78 41.96 230.78"></polygon>
                <polygon id="Fill-38" fill="#CC9D69" points="83.92 188.82 104.9 188.82 104.9 167.84 83.92 167.84"></polygon>
                <polygon id="Fill-39" fill="#CC9D69" points="20.98 104.9 41.96 104.9 41.96 83.92 20.98 83.92"></polygon>
                <polygon id="Fill-40" fill="#212121" points="83.92 83.92 104.9 83.92 104.9 62.94 83.92 62.94"></polygon>
                <polygon id="Fill-41" fill="#CC9D69" points="41.96 20.98 62.94 20.98 62.94 -5.68434189e-14 41.96 -5.68434189e-14"></polygon>
                <polygon id="Fill-42" fill="#695142" points="104.9 251.76 125.88 251.76 125.88 230.78 104.9 230.78"></polygon>
                <polygon id="Fill-43" fill="#FFD9B3" points="83.92 167.84 104.9 167.84 104.9 146.86 83.92 146.86"></polygon>
                <polygon id="Fill-44" fill="#9B744E" points="20.98 125.88 41.96 125.88 41.96 104.9 20.98 104.9"></polygon>
                <polygon id="Fill-45" fill="#CC9D69" points="83.92 272.74 104.9 272.74 104.9 251.76 83.92 251.76"></polygon>
                <polygon id="Fill-46" fill="#CC9D69" points="41.96 230.78 62.94 230.78 62.94 209.8 41.96 209.8"></polygon>
                <polygon id="Fill-47" fill="#CC9D69" points="62.94 209.8 83.92 209.8 83.92 188.82 62.94 188.82"></polygon>
                <polygon id="Fill-48" fill="#695142" points="62.94 62.94 83.92 62.94 83.92 41.96 62.94 41.96"></polygon>
                <polygon id="Fill-49" fill="#CC9D69" points="83.92 104.9 104.9 104.9 104.9 83.92 83.92 83.92"></polygon>
                <polygon id="Fill-50" fill="#9B744E" points="41.96 41.96 62.94 41.96 62.94 20.98 41.96 20.98"></polygon>
                <polygon id="Fill-51" fill="#CC9D69" points="20.98 188.82 41.96 188.82 41.96 167.84 20.98 167.84"></polygon>
                <polygon id="Fill-52" fill="#695142" points="104.9 209.8 125.88 209.8 125.88 188.82 104.9 188.82"></polygon>
                <polygon id="Fill-53" fill="#CC9D69" points="104.9 62.94 125.88 62.94 125.88 41.96 104.9 41.96"></polygon>
                <polygon id="Fill-54" fill="#CC9D69" points="83.92 125.88 104.9 125.88 104.9 104.9 83.92 104.9"></polygon>
                <polygon id="Fill-55" fill="#CC9D69" points="41.96 209.8 62.94 209.8 62.94 188.82 41.96 188.82"></polygon>
                <polygon id="Fill-56" fill="#9B744E" points="41.96 62.94 62.94 62.94 62.94 41.96 41.96 41.96"></polygon>
                <polygon id="Fill-57" fill="#695142" points="104.9 230.78 125.88 230.78 125.88 209.8 104.9 209.8"></polygon>
                <polygon id="Fill-58" fill="#9B744E" points="83.92 146.86 104.9 146.86 104.9 125.88 83.92 125.88"></polygon>
                <polygon id="Fill-59" fill="#CC9D69" points="62.94 41.96 83.92 41.96 83.92 20.98 62.94 20.98"></polygon>
                <polygon id="Fill-60" fill="#CC9D69" points="20.98 83.92 41.96 83.92 41.96 62.94 20.98 62.94"></polygon>
                <polygon id="Fill-61" fill="#9B744E" points="62.94 251.76 83.92 251.76 83.92 230.78 62.94 230.78"></polygon>
                <polygon id="Fill-62" fill="#9B744E" points="62.94 230.78 83.92 230.78 83.92 209.8 62.94 209.8"></polygon>
            </g>
        </g>
    </g>
</svg>