<?xml version="1.0" encoding="UTF-8"?>
<svg width="177px" height="145px" viewBox="0 0 177 145" version="1.1" xmlns="http://www.w3.org/2000/svg" xmlns:xlink="http://www.w3.org/1999/xlink">
    <!-- Generator: Sketch 46 (44423) - http://www.bohemiancoding.com/sketch -->
    <title>Group 2</title>
    <desc>Created with Sketch.</desc>
    <defs></defs>
    <g id="Page-1" stroke="none" stroke-width="1" fill="none" fill-rule="evenodd">
        <g id="Artboard-3" transform="translate(-84.000000, -183.000000)" stroke="#212121" stroke-width="11">
            <g id="Group-2" transform="translate(112.000000, 189.000000)">
                <path d="M59.5,61 L59.5,135" id="Path-20"></path>
                <path d="M0,34.236068 L0,100.214273 L-8.8817842e-16,100.214273 C-7.5341947e-16,101.314663 0.602432724,102.326743 1.56971088,102.851369 L55.2486528,131.965371 L55.2486528,131.965371 C57.5931852,133.236982 60.4172421,133.256529 62.7791521,132.017494 L115.180944,104.528029 L115.180944,104.528029 C118.143884,102.9737 120,99.9039896 120,96.5581042 L120,33.2845059 L120,33.2845059 C120,32.1799364 119.104569,31.2845059 118,31.2845059 C117.680557,31.2845059 117.365761,31.3610234 117.08196,31.5076541 L60.9031832,60.5333554 L60.9031832,60.5333554 C60.3356181,60.8265973 59.6621149,60.8310574 59.0907159,60.5453579 L2.89442719,32.4472136 L2.89442719,32.4472136 C1.9064702,31.9532351 0.705124115,32.3536838 0.211145618,33.3416408 C0.0722901835,33.6193517 1.1563582e-15,33.9255778 1.33226763e-15,34.236068 Z" id="Path-17"></path>
                <path d="M2,31.4494245 L58.0840984,0.506473659 L58.0840984,0.506473659 C59.2778917,-0.152170938 60.724957,-0.157378483 61.9234599,0.492656972 L119,31.4494245" id="Path-18"></path>
                <path d="M33,17 L91,48" id="Path-19"></path>
            </g>
        </g>
    </g>
</svg>