<?xml version="1.0" encoding="UTF-8"?>
<svg width="177px" height="144px" viewBox="0 0 177 144" version="1.1" xmlns="http://www.w3.org/2000/svg" xmlns:xlink="http://www.w3.org/1999/xlink">
    <!-- Generator: Sketch 46 (44423) - http://www.bohemiancoding.com/sketch -->
    <title>Group</title>
    <desc>Created with Sketch.</desc>
    <defs></defs>
    <g id="Page-1" stroke="none" stroke-width="1" fill="none" fill-rule="evenodd">
        <g id="Artboard-3" transform="translate(-302.000000, -178.000000)" stroke="#212121" stroke-width="11">
            <g id="Group" transform="translate(307.000000, 184.000000)">
                <path d="M83.5,60 L83.5,134" id="Path-20"></path>
                <path d="M24,33.236068 L24,99.214273 C24,100.314663 24.6024327,101.326743 25.5697109,101.851369 L79.2486528,130.965371 C81.5931852,132.236982 84.4172421,132.256529 86.7791521,131.017494 L139.180944,103.528029 C142.143884,101.9737 144,98.9039896 144,95.5581042 L145,33 M84.9031832,59.5333554 C84.3356181,59.8265973 83.6621149,59.8310574 83.0907159,59.5453579" id="Path-17"></path>
                <path d="M26,31.4494245 L82.0840984,0.506473659 L82.0840984,0.506473659 C83.2778917,-0.152170938 84.724957,-0.157378483 85.9234599,0.492656972 L143,31.4494245" id="Path-18"></path>
                <path d="M24.9924577,31.8582768 L1.21936647,52.1094286 L1.21936647,52.1094286 C0.378520413,52.8257048 0.277536649,54.0880019 0.993812917,54.9288479 C1.15346689,55.1162678 1.34635358,55.2725986 1.5627733,55.3899787 L56.6878079,85.2883026 L56.6878079,85.2883026 C57.4661524,85.7104556 58.4294352,85.5705648 59.0555476,84.9444524 L84,60 L27.1838178,31.5919089 L27.1838178,31.5919089 C26.466073,31.2330365 25.6033272,31.3379065 24.9924577,31.8582768 Z" id="Path-19" fill="#FFFFFF"></path>
                <path d="M84,60 L106.972836,83.9300372 L106.972836,83.9300372 C107.582887,84.5655075 108.536882,84.7270089 109.322104,84.3277439 L164.544073,56.2487766 L164.544073,56.2487766 C165.528669,55.7481342 165.920992,54.5441099 165.42035,53.559513 C165.324972,53.3719379 165.20059,53.2005901 165.051793,53.0517928 L144.585246,32.5852455 L144.585246,32.5852455 C143.045599,31.0455991 140.686592,30.6793489 138.752597,31.6796912 L84,60 Z" id="Path-21" fill="#FFFFFF"></path>
            </g>
        </g>
    </g>
</svg>