<?xml version="1.0" encoding="UTF-8"?>
<svg width="77px" height="77px" viewBox="0 0 77 77" version="1.1" xmlns="http://www.w3.org/2000/svg" xmlns:xlink="http://www.w3.org/1999/xlink">
    <!-- Generator: Sketch 46 (44423) - http://www.bohemiancoding.com/sketch -->
    <title>Mobile</title>
    <desc>Created with Sketch.</desc>
    <defs></defs>
    <g id="Page-1" stroke="none" stroke-width="1" fill="none" fill-rule="evenodd">
        <g id="Mobile" transform="translate(-20.000000, -536.000000)">
            <g id="Group-2" transform="translate(55.818019, 577.181981) rotate(45.000000) translate(-55.818019, -577.181981) translate(39.818019, 530.681981)" stroke="#212121" stroke-width="2">
                <path d="M16.0274824,19.4333025 C11.0569196,19.4333025 7.02748238,23.4627398 7.02748238,28.4333025 L7.02748238,82.4333025 C7.02748238,87.4038653 11.0569196,91.4333025 16.0274824,91.4333025 C20.9980451,91.4333025 25.0274824,87.4038653 25.0274824,82.4333025 L25.0274824,28.4333025 C25.0274824,23.4627398 20.9980451,19.4333025 16.0274824,19.4333025 Z M16.0274824,91.4333025 C11.0569196,91.4333025 7.02748238,87.4038653 7.02748238,82.4333025 C7.02748238,77.4627398 11.0569196,73.4333025 16.0274824,73.4333025 C20.9980451,73.4333025 25.0274824,77.4627398 25.0274824,82.4333025 C25.0274824,87.4038653 20.9980451,91.4333025 16.0274824,91.4333025 Z" id="Combined-Shape"></path>
                <path d="M8.72088162,0.726635818 C3.70215647,3.29218311 0.266336166,8.51312471 0.266336166,14.5365451 C0.266336166,20.5176922 3.65409935,25.7075847 8.61544932,28.2920464 C9.20217674,28.5976839 9.8109113,28.8668835 10.4386525,29.0966448 C12.0999646,29.7047063 13.8943978,30.0365451 15.7663362,30.0365451 C18.1798687,30.0365451 20.4645603,29.484912 22.5012086,28.5008481 C27.6882259,25.994595 31.2663362,20.6834263 31.2663362,14.5365451 C31.2663362,8.51312471 27.8305159,3.29218311 22.8117907,0.726635817 L22.8117907,11.9456361 L22.8117907,11.9456361 C22.8117907,14.1547751 21.0209297,15.9456361 18.8117907,15.9456361 L12.7208816,15.9456361 L12.7208816,15.9456361 C10.5117426,15.9456361 8.72088162,14.1547751 8.72088162,11.9456361 L8.72088162,0.726632577 Z" id="Combined-Shape" fill="#FFFFFF"></path>
            </g>
            <path d="M46.0120015,562.556136 L46.097788,562.470349 L32.5114373,548.883999 C30.7402012,547.112763 30.7402012,544.241021 32.5114373,542.469785 C34.2826735,540.698549 37.1544147,540.698549 38.9256509,542.469785 L52.5120015,556.056136 L52.6688558,555.899282 L36.3759626,539.606388 C32.8612439,536.09167 27.1627591,536.09167 23.6480405,539.606388 C20.1333219,543.121107 20.1333219,548.819592 23.6480405,552.33431 L39.9409337,568.627204 L40.0035928,568.564545 L26.194775,554.755727 C24.5355987,553.09655 24.5355987,550.406494 26.194775,548.747318 C27.8539512,547.088142 30.5440074,547.088142 32.2031837,548.747318 L46.0120015,562.556136 Z" id="Combined-Shape" stroke="#212121" stroke-width="2"></path>
            <g id="Group-3" transform="translate(81.202796, 598.788582) rotate(-45.000000) translate(-81.202796, -598.788582) translate(77.202796, 580.288582)" fill="#212121">
                <rect id="Combined-Shape" x="3.11439787" y="0.389918432" width="2" height="32"></rect>
                <polygon id="Path-16" points="3.11439787 24.3899184 0.878679656 28.4055916 3.11439787 36.3899184 5.11439787 36.3899184 7.24264069 29.1126984 5.11439787 24.3899184"></polygon>
            </g>
        </g>
    </g>
</svg>